<svg xmlns="http://www.w3.org/2000/svg" xmlns:xlink="http://www.w3.org/1999/xlink" width="612" zoomAndPan="magnify" viewBox="0 0 458.88 458.999989" height="612" preserveAspectRatio="xMidYMid meet" version="1.0"><defs><clipPath id="ba8b168f23"><path d="M 166.6875 137.722656 L 291.90625 137.722656 L 291.90625 321.425781 L 166.6875 321.425781 Z M 166.6875 137.722656 " clip-rule="nonzero"/></clipPath><clipPath id="fc42a2e9ba"><path d="M 96.058594 231 L 242.652344 231 L 242.652344 379.25 L 96.058594 379.25 Z M 96.058594 231 " clip-rule="nonzero"/></clipPath><clipPath id="b95f61793b"><path d="M 263 80.078125 L 310 80.078125 L 310 124 L 263 124 Z M 263 80.078125 " clip-rule="nonzero"/></clipPath><clipPath id="207c4a6e77"><path d="M 304 158.75 L 379.308594 158.75 L 379.308594 359 L 304 359 Z M 304 158.75 " clip-rule="nonzero"/></clipPath></defs><g clip-path="url(#ba8b168f23)"><path fill="#000000" d="M 229.582031 138.105469 C 229.539062 137.765625 229.046875 137.765625 229.003906 138.105469 C 223.902344 177.019531 166.6875 220.234375 166.6875 258.597656 C 166.6875 293.28125 194.71875 321.394531 229.292969 321.394531 C 263.867188 321.394531 291.898438 293.28125 291.898438 258.597656 C 291.898438 219.832031 234.664062 177.171875 229.582031 138.105469 " fill-opacity="1" fill-rule="nonzero"/></g><path fill="#ffffff" d="M 222.105469 312.761719 C 223.15625 312.964844 222.984375 314.519531 221.914062 314.492188 C 207.246094 314.085938 192.933594 307.015625 183.78125 294.089844 C 172.328125 277.917969 170.554688 257.355469 178.238281 241.105469 C 178.699219 240.132812 180.109375 240.839844 179.800781 241.867188 C 174.867188 258.222656 178.648438 276.554688 189.292969 291.585938 C 197.425781 303.070312 209.320312 310.292969 222.105469 312.761719 " fill-opacity="1" fill-rule="nonzero"/><path fill="#212121" d="M 84.964844 273.5 C 84.25 273.5 83.523438 273.34375 82.839844 273.007812 C 80.449219 271.828125 79.460938 268.933594 80.636719 266.539062 L 96.597656 234.042969 C 97.363281 232.484375 98.902344 231.460938 100.628906 231.355469 C 102.355469 231.246094 104.007812 232.074219 104.960938 233.519531 L 124.816406 263.742188 C 126.285156 265.96875 125.667969 268.964844 123.441406 270.429688 C 121.214844 271.898438 118.222656 271.28125 116.757812 269.050781 L 101.535156 245.886719 L 89.300781 270.800781 C 88.457031 272.511719 86.746094 273.5 84.964844 273.5 " fill-opacity="1" fill-rule="evenodd"/><g clip-path="url(#fc42a2e9ba)"><path fill="#212121" d="M 237.6875 379.25 C 218.570312 379.25 200.023438 375.464844 182.5625 367.996094 C 165.699219 360.789062 150.558594 350.46875 137.558594 337.328125 C 124.5625 324.191406 114.355469 308.890625 107.226562 291.851562 C 99.847656 274.214844 96.105469 255.484375 96.105469 236.175781 C 96.105469 233.507812 98.269531 231.34375 100.929688 231.34375 C 103.59375 231.34375 105.757812 233.507812 105.757812 236.175781 C 105.757812 309.738281 164.941406 369.585938 237.691406 369.585938 C 240.355469 369.585938 242.515625 371.75 242.515625 374.414062 C 242.515625 377.082031 240.355469 379.25 237.6875 379.25 " fill-opacity="1" fill-rule="evenodd"/></g><g clip-path="url(#b95f61793b)"><path fill="#212121" d="M 268.660156 123.125 C 266.160156 123.125 264.046875 121.199219 263.851562 118.664062 C 263.648438 116.003906 265.636719 113.683594 268.292969 113.476562 L 295.792969 111.347656 L 280.191406 88.289062 C 278.695312 86.078125 279.269531 83.074219 281.480469 81.582031 C 283.683594 80.082031 286.683594 80.660156 288.179688 82.867188 L 308.445312 112.8125 C 309.410156 114.238281 309.539062 116.070312 308.792969 117.621094 C 308.046875 119.171875 306.535156 120.207031 304.824219 120.339844 L 269.035156 123.109375 C 268.910156 123.117188 268.78125 123.125 268.660156 123.125 " fill-opacity="1" fill-rule="evenodd"/></g><path fill="#212121" d="M 118.328125 173.523438 C 117.539062 173.523438 116.734375 173.324219 115.992188 172.917969 C 113.664062 171.625 112.820312 168.683594 114.113281 166.351562 C 123.464844 149.4375 135.832031 134.894531 150.859375 123.117188 C 165.378906 111.742188 181.75 103.425781 199.515625 98.402344 C 217.167969 93.40625 235.320312 91.910156 253.457031 93.957031 C 272.238281 96.070312 290.191406 101.914062 306.820312 111.316406 C 309.140625 112.628906 309.960938 115.574219 308.652344 117.898438 C 307.34375 120.222656 304.398438 121.039062 302.078125 119.730469 C 271.4375 102.410156 235.945312 98.136719 202.140625 107.699219 C 168.082031 117.335938 139.816406 139.828125 122.550781 171.03125 C 121.671875 172.625 120.023438 173.523438 118.328125 173.523438 " fill-opacity="1" fill-rule="evenodd"/><path fill="#212121" d="M 309.269531 358.800781 C 307.710938 358.800781 306.238281 358.046875 305.328125 356.761719 C 304.335938 355.355469 304.164062 353.523438 304.882812 351.957031 L 319.960938 319.035156 C 321.074219 316.609375 323.9375 315.546875 326.359375 316.660156 C 328.78125 317.769531 329.847656 320.636719 328.734375 323.0625 L 317.128906 348.402344 L 344.578125 345.898438 C 347.234375 345.65625 349.578125 347.617188 349.820312 350.273438 C 350.0625 352.929688 348.109375 355.28125 345.457031 355.523438 L 309.710938 358.78125 C 309.558594 358.792969 309.414062 358.800781 309.269531 358.800781 " fill-opacity="1" fill-rule="evenodd"/><g clip-path="url(#207c4a6e77)"><path fill="#212121" d="M 309.273438 358.800781 C 307.660156 358.800781 306.078125 357.992188 305.164062 356.519531 C 303.761719 354.25 304.460938 351.273438 306.722656 349.867188 C 368.738281 311.359375 388.195312 229.027344 350.097656 166.332031 C 348.710938 164.054688 349.433594 161.078125 351.710938 159.695312 C 353.988281 158.308594 356.957031 159.03125 358.339844 161.308594 C 368.339844 177.765625 374.851562 195.707031 377.695312 214.640625 C 380.441406 232.925781 379.667969 251.351562 375.398438 269.421875 C 371.125 287.488281 363.570312 304.285156 352.941406 319.339844 C 341.933594 334.933594 328.097656 347.964844 311.8125 358.078125 C 311.019531 358.566406 310.140625 358.800781 309.273438 358.800781 " fill-opacity="1" fill-rule="evenodd"/></g></svg>