<svg xmlns="http://www.w3.org/2000/svg" xmlns:xlink="http://www.w3.org/1999/xlink" width="612" zoomAndPan="magnify" viewBox="0 0 458.88 458.999989" height="612" preserveAspectRatio="xMidYMid meet" version="1.0"><defs><clipPath id="30f8cb27d7"><path d="M 0 0.0585938 L 458.761719 0.0585938 L 458.761719 458.9375 L 0 458.9375 Z M 0 0.0585938 " clip-rule="nonzero"/></clipPath><clipPath id="6a08246815"><path d="M 96.042969 231 L 242.632812 231 L 242.632812 379.230469 L 96.042969 379.230469 Z M 96.042969 231 " clip-rule="nonzero"/></clipPath><clipPath id="3147756d26"><path d="M 263 80.058594 L 310 80.058594 L 310 124 L 263 124 Z M 263 80.058594 " clip-rule="nonzero"/></clipPath><clipPath id="e6acba54cd"><path d="M 304 158.734375 L 379.292969 158.734375 L 379.292969 359 L 304 359 Z M 304 158.734375 " clip-rule="nonzero"/></clipPath><clipPath id="0a8da357f5"><path d="M 137.664062 158.097656 L 321 158.097656 L 321 300.394531 L 137.664062 300.394531 Z M 137.664062 158.097656 " clip-rule="nonzero"/></clipPath></defs><g clip-path="url(#30f8cb27d7)"><path fill="#ffffff" d="M 0 0.0585938 L 458.878906 0.0585938 L 458.878906 458.941406 L 0 458.941406 Z M 0 0.0585938 " fill-opacity="1" fill-rule="nonzero"/><path fill="#ffffff" d="M 0 0.0585938 L 458.878906 0.0585938 L 458.878906 458.941406 L 0 458.941406 Z M 0 0.0585938 " fill-opacity="1" fill-rule="nonzero"/></g><path fill="#212121" d="M 84.949219 273.484375 C 84.230469 273.484375 83.507812 273.324219 82.820312 272.988281 C 80.433594 271.808594 79.445312 268.917969 80.621094 266.519531 L 96.582031 234.023438 C 97.34375 232.46875 98.886719 231.441406 100.609375 231.335938 C 102.335938 231.230469 103.988281 232.054688 104.941406 233.503906 L 124.800781 263.722656 C 126.265625 265.953125 125.652344 268.949219 123.421875 270.414062 C 121.199219 271.882812 118.203125 271.261719 116.742188 269.035156 L 101.515625 245.871094 L 89.28125 270.785156 C 88.441406 272.492188 86.730469 273.484375 84.949219 273.484375 " fill-opacity="1" fill-rule="evenodd"/><g clip-path="url(#6a08246815)"><path fill="#212121" d="M 237.671875 379.230469 C 218.554688 379.230469 200.007812 375.445312 182.542969 367.980469 C 165.683594 360.773438 150.539062 350.453125 137.542969 337.3125 C 124.546875 324.171875 114.339844 308.875 107.210938 291.832031 C 99.832031 274.199219 96.085938 255.46875 96.085938 236.15625 C 96.085938 233.488281 98.25 231.328125 100.914062 231.328125 C 103.578125 231.328125 105.742188 233.488281 105.742188 236.15625 C 105.742188 309.722656 164.921875 369.570312 237.671875 369.570312 C 240.335938 369.570312 242.5 371.730469 242.5 374.398438 C 242.5 377.066406 240.335938 379.230469 237.671875 379.230469 " fill-opacity="1" fill-rule="evenodd"/></g><g clip-path="url(#3147756d26)"><path fill="#212121" d="M 268.640625 123.105469 C 266.144531 123.105469 264.03125 121.179688 263.835938 118.648438 C 263.632812 115.988281 265.617188 113.664062 268.273438 113.457031 L 295.777344 111.328125 L 280.171875 88.269531 C 278.675781 86.0625 279.253906 83.058594 281.460938 81.5625 C 283.667969 80.0625 286.667969 80.644531 288.164062 82.851562 L 308.425781 112.796875 C 309.390625 114.222656 309.523438 116.054688 308.777344 117.601562 C 308.03125 119.15625 306.515625 120.191406 304.804688 120.320312 L 269.015625 123.089844 C 268.894531 123.101562 268.765625 123.105469 268.640625 123.105469 " fill-opacity="1" fill-rule="evenodd"/></g><path fill="#212121" d="M 118.3125 173.503906 C 117.519531 173.503906 116.71875 173.308594 115.976562 172.898438 C 113.644531 171.609375 112.800781 168.667969 114.09375 166.332031 C 123.449219 149.421875 135.816406 134.878906 150.84375 123.101562 C 165.363281 111.726562 181.734375 103.410156 199.496094 98.382812 C 217.152344 93.386719 235.300781 91.894531 253.4375 93.9375 C 272.222656 96.054688 290.175781 101.894531 306.804688 111.300781 C 309.125 112.613281 309.941406 115.558594 308.632812 117.882812 C 307.324219 120.203125 304.378906 121.023438 302.058594 119.710938 C 271.417969 102.390625 235.925781 98.117188 202.121094 107.683594 C 168.066406 117.316406 139.800781 139.808594 122.53125 171.015625 C 121.652344 172.609375 120.007812 173.503906 118.3125 173.503906 " fill-opacity="1" fill-rule="evenodd"/><path fill="#212121" d="M 309.25 358.785156 C 307.695312 358.785156 306.222656 358.03125 305.3125 356.742188 C 304.316406 355.335938 304.148438 353.503906 304.863281 351.941406 L 319.945312 319.015625 C 321.058594 316.59375 323.921875 315.527344 326.34375 316.640625 C 328.761719 317.753906 329.832031 320.617188 328.71875 323.046875 L 317.113281 348.386719 L 344.5625 345.882812 C 347.214844 345.640625 349.5625 347.597656 349.804688 350.253906 C 350.046875 352.914062 348.09375 355.261719 345.4375 355.503906 L 309.695312 358.765625 C 309.542969 358.777344 309.394531 358.785156 309.25 358.785156 " fill-opacity="1" fill-rule="evenodd"/><g clip-path="url(#e6acba54cd)"><path fill="#212121" d="M 309.253906 358.785156 C 307.640625 358.785156 306.0625 357.972656 305.148438 356.5 C 303.746094 354.234375 304.441406 351.253906 306.707031 349.847656 C 368.71875 311.34375 388.175781 229.011719 350.082031 166.3125 C 348.695312 164.035156 349.417969 161.0625 351.695312 159.675781 C 353.96875 158.289062 356.941406 159.015625 358.324219 161.292969 C 368.324219 177.746094 374.835938 195.6875 377.679688 214.621094 C 380.425781 232.90625 379.652344 251.335938 375.382812 269.40625 C 371.109375 287.46875 363.554688 304.265625 352.925781 319.320312 C 341.914062 334.917969 328.078125 347.949219 311.792969 358.058594 C 311.003906 358.546875 310.121094 358.785156 309.253906 358.785156 " fill-opacity="1" fill-rule="evenodd"/></g><g clip-path="url(#0a8da357f5)"><path fill="#000000" d="M 307.042969 201.085938 C 306.296875 195.550781 306.195312 185.996094 311.347656 182.796875 C 311.433594 182.742188 311.507812 182.65625 311.59375 182.582031 C 315.796875 181.234375 318.710938 179.339844 316.429688 176.800781 L 254.316406 158.097656 L 153.753906 172.070312 C 153.753906 172.070312 142.242188 173.71875 143.261719 191.605469 C 143.820312 201.332031 146.878906 206.109375 149.546875 208.460938 L 141.296875 210.957031 C 139.011719 213.496094 141.925781 215.375 146.132812 216.722656 C 146.21875 216.792969 146.273438 216.878906 146.375 216.9375 C 151.511719 220.152344 151.414062 229.691406 150.679688 235.242188 C 132.195312 240.476562 138.828125 242.199219 138.828125 242.199219 L 142.886719 243.175781 C 140.03125 245.757812 137.191406 250.632812 137.734375 259.898438 C 138.753906 277.789062 148.210938 279.019531 148.210938 279.019531 L 214.03125 300.394531 L 313.359375 276.351562 C 313.359375 276.351562 319.988281 274.632812 301.503906 269.382812 C 300.757812 263.859375 300.65625 254.304688 305.808594 251.09375 C 305.910156 251.035156 305.964844 250.949219 306.050781 250.878906 C 310.257812 249.527344 313.171875 247.648438 310.890625 245.109375 L 306.570312 243.804688 C 309.453125 242.070312 313.773438 237.535156 314.449219 225.746094 C 314.921875 217.65625 312.796875 212.90625 310.359375 210.109375 L 318.882812 208.042969 C 318.882812 208.042969 325.527344 206.335938 307.042969 201.085938 Z M 223.960938 200.859375 L 240.652344 197.429688 L 297.113281 185.824219 L 305.523438 184.101562 C 302.824219 189.023438 302.9375 195.75 303.382812 200.070312 C 303.484375 201.042969 303.597656 201.933594 303.699219 202.621094 L 294.5 204.902344 L 223.257812 222.617188 Z M 152.203125 218.257812 L 160.613281 219.980469 L 214.820312 231.125 L 219.554688 232.101562 L 233.761719 235.011719 L 234.453125 256.773438 L 161.230469 238.570312 L 154.011719 236.777344 C 154.125 236.089844 154.226562 235.199219 154.339844 234.222656 C 154.769531 229.90625 154.886719 223.179688 152.203125 218.257812 Z M 148.929688 190.746094 C 148.828125 185.984375 149.675781 182.539062 151.398438 180.789062 C 152.488281 179.671875 153.78125 179.441406 154.65625 179.441406 C 155.128906 179.441406 155.460938 179.511719 155.488281 179.511719 L 198.816406 193.628906 L 220.429688 200.671875 L 219.726562 222.589844 L 159.078125 205.589844 L 155.875 204.703125 C 155.761719 204.671875 155.589844 204.644531 155.472656 204.644531 C 155.214844 204.617188 149.230469 204.070312 148.929688 190.746094 Z M 214.1875 290.898438 L 150.335938 273.011719 C 150.222656 272.96875 150.0625 272.953125 149.933594 272.9375 C 149.675781 272.925781 143.675781 272.378906 143.390625 259.054688 C 143.289062 254.292969 144.136719 250.847656 145.859375 249.097656 C 146.949219 247.980469 148.226562 247.75 149.117188 247.75 C 149.574219 247.75 149.921875 247.820312 149.933594 247.820312 C 149.933594 247.820312 149.949219 247.820312 149.933594 247.820312 L 214.890625 268.980469 Z M 297.84375 268.378906 C 297.945312 269.351562 298.058594 270.242188 298.160156 270.929688 L 217.71875 290.925781 L 218.40625 269.167969 L 235.613281 265.625 L 238.15625 266.238281 L 247.667969 263.15625 L 291.558594 254.132812 L 299.96875 252.410156 C 297.285156 257.316406 297.398438 264.046875 297.84375 268.378906 Z M 302.277344 238.785156 C 302.132812 238.800781 301.976562 238.8125 301.847656 238.855469 L 295.777344 240.5625 L 237.996094 256.742188 L 237.292969 234.824219 L 256.253906 228.644531 L 302.148438 213.683594 C 302.148438 213.683594 304.558594 213.152344 306.324219 214.945312 C 308.03125 216.695312 308.894531 220.136719 308.792969 224.898438 C 308.492188 238.226562 302.492188 238.769531 302.277344 238.785156 Z M 302.277344 238.785156 " fill-opacity="1" fill-rule="nonzero"/></g></svg>