<svg xmlns="http://www.w3.org/2000/svg" xmlns:xlink="http://www.w3.org/1999/xlink" width="612" zoomAndPan="magnify" viewBox="0 0 458.88 458.999989" height="612" preserveAspectRatio="xMidYMid meet" version="1.0"><defs><clipPath id="99e4d2e266"><path d="M 96.242188 231 L 242.835938 231 L 242.835938 378.679688 L 96.242188 378.679688 Z M 96.242188 231 " clip-rule="nonzero"/></clipPath><clipPath id="ce6a81cbbd"><path d="M 264 80.261719 L 310 80.261719 L 310 124 L 264 124 Z M 264 80.261719 " clip-rule="nonzero"/></clipPath><clipPath id="509cd10968"><path d="M 304 158.734375 L 379.492188 158.734375 L 379.492188 358.6875 L 304 358.6875 Z M 304 158.734375 " clip-rule="nonzero"/></clipPath><clipPath id="02e2405871"><path d="M 149.613281 175.539062 L 215.59375 175.539062 L 215.59375 262 L 149.613281 262 Z M 149.613281 175.539062 " clip-rule="nonzero"/></clipPath><clipPath id="665c254b98"><path d="M 171 279 L 194 279 L 194 283.511719 L 171 283.511719 Z M 171 279 " clip-rule="nonzero"/></clipPath><clipPath id="95c3cc26f1"><path d="M 246.402344 134.5625 L 312.382812 134.5625 L 312.382812 229.789062 L 246.402344 229.789062 Z M 246.402344 134.5625 " clip-rule="nonzero"/></clipPath><clipPath id="a3b18e1ca8"><path d="M 201.492188 249.242188 L 291.46875 249.242188 L 291.46875 338.46875 L 201.492188 338.46875 Z M 201.492188 249.242188 " clip-rule="nonzero"/></clipPath></defs><path fill="#212121" d="M 85.148438 273.199219 C 84.433594 273.199219 83.707031 273.042969 83.023438 272.703125 C 80.636719 271.527344 79.648438 268.644531 80.820312 266.253906 L 96.78125 233.839844 C 97.546875 232.285156 99.085938 231.261719 100.8125 231.160156 C 102.539062 231.050781 104.191406 231.875 105.144531 233.320312 L 125 263.464844 C 126.46875 265.683594 125.851562 268.675781 123.625 270.136719 C 121.398438 271.601562 118.40625 270.984375 116.941406 268.761719 L 101.71875 245.65625 L 89.484375 270.503906 C 88.640625 272.210938 86.929688 273.199219 85.148438 273.199219 " fill-opacity="1" fill-rule="evenodd"/><g clip-path="url(#99e4d2e266)"><path fill="#212121" d="M 237.871094 378.679688 C 218.753906 378.679688 200.207031 374.90625 182.746094 367.457031 C 165.882812 360.269531 150.742188 349.972656 137.742188 336.867188 C 124.746094 323.761719 114.539062 308.5 107.410156 291.503906 C 100.03125 273.910156 96.289062 255.226562 96.289062 235.964844 C 96.289062 233.304688 98.453125 231.148438 101.113281 231.148438 C 103.777344 231.148438 105.941406 233.304688 105.941406 235.964844 C 105.941406 309.347656 165.125 369.042969 237.875 369.042969 C 240.539062 369.042969 242.699219 371.199219 242.699219 373.859375 C 242.699219 376.519531 240.539062 378.679688 237.871094 378.679688 " fill-opacity="1" fill-rule="evenodd"/></g><g clip-path="url(#ce6a81cbbd)"><path fill="#212121" d="M 268.839844 123.199219 C 266.34375 123.199219 264.230469 121.277344 264.035156 118.75 C 263.832031 116.097656 265.816406 113.78125 268.476562 113.574219 L 295.976562 111.449219 L 280.371094 88.449219 C 278.878906 86.246094 279.453125 83.25 281.660156 81.761719 C 283.867188 80.261719 286.867188 80.839844 288.363281 83.042969 L 308.628906 112.914062 C 309.59375 114.335938 309.722656 116.164062 308.976562 117.707031 C 308.230469 119.257812 306.714844 120.289062 305.003906 120.421875 L 269.21875 123.183594 C 269.09375 123.191406 268.964844 123.199219 268.839844 123.199219 " fill-opacity="1" fill-rule="evenodd"/></g><path fill="#212121" d="M 118.511719 173.472656 C 117.722656 173.472656 116.917969 173.273438 116.175781 172.867188 C 113.847656 171.578125 113.003906 168.644531 114.296875 166.316406 C 123.648438 149.449219 136.015625 134.941406 151.042969 123.191406 C 165.5625 111.84375 181.933594 103.550781 199.699219 98.539062 C 217.351562 93.554688 235.5 92.0625 253.640625 94.101562 C 272.421875 96.214844 290.375 102.042969 307.003906 111.421875 C 309.324219 112.730469 310.140625 115.667969 308.832031 117.984375 C 307.523438 120.304688 304.578125 121.121094 302.261719 119.8125 C 271.621094 102.535156 236.125 98.273438 202.320312 107.8125 C 168.265625 117.425781 140 139.859375 122.734375 170.988281 C 121.855469 172.574219 120.207031 173.472656 118.511719 173.472656 " fill-opacity="1" fill-rule="evenodd"/><path fill="#212121" d="M 309.453125 358.285156 C 307.894531 358.285156 306.421875 357.535156 305.511719 356.25 C 304.515625 354.847656 304.347656 353.019531 305.0625 351.457031 L 320.144531 318.617188 C 321.257812 316.199219 324.121094 315.136719 326.542969 316.25 C 328.964844 317.355469 330.03125 320.214844 328.917969 322.636719 L 317.3125 347.914062 L 344.761719 345.414062 C 347.414062 345.171875 349.761719 347.128906 350.003906 349.777344 C 350.246094 352.429688 348.292969 354.773438 345.636719 355.015625 L 309.894531 358.265625 C 309.742188 358.277344 309.597656 358.285156 309.453125 358.285156 " fill-opacity="1" fill-rule="evenodd"/><g clip-path="url(#509cd10968)"><path fill="#212121" d="M 309.457031 358.285156 C 307.84375 358.285156 306.261719 357.476562 305.347656 356.007812 C 303.945312 353.746094 304.640625 350.773438 306.90625 349.375 C 368.917969 310.964844 388.375 228.839844 350.28125 166.296875 C 348.894531 164.027344 349.617188 161.058594 351.894531 159.675781 C 354.167969 158.292969 357.140625 159.015625 358.523438 161.289062 C 368.523438 177.703125 375.035156 195.597656 377.878906 214.484375 C 380.625 232.722656 379.851562 251.105469 375.582031 269.128906 C 371.308594 287.148438 363.753906 303.90625 353.125 318.921875 C 342.113281 334.476562 328.28125 347.476562 311.996094 357.5625 C 311.203125 358.050781 310.324219 358.285156 309.457031 358.285156 " fill-opacity="1" fill-rule="evenodd"/></g><g clip-path="url(#02e2405871)"><path fill="#231f20" d="M 182.621094 179.046875 C 166.382812 179.046875 153.171875 192.289062 153.171875 208.5625 C 153.171875 215.488281 156.015625 221.753906 158.796875 226.972656 C 159.789062 228.835938 160.867188 230.683594 162 232.464844 C 162.398438 233.09375 162.851562 233.730469 163.328125 234.402344 C 165.65625 237.679688 168.554688 241.757812 168.730469 249.648438 L 168.730469 252.683594 C 168.730469 255.519531 171.03125 257.828125 173.863281 257.828125 L 191.378906 257.828125 C 194.210938 257.828125 196.511719 255.519531 196.511719 252.683594 L 196.511719 249.28125 L 196.515625 249.21875 C 196.78125 241.613281 199.617188 237.617188 201.898438 234.410156 C 202.378906 233.734375 202.828125 233.097656 203.230469 232.464844 C 206.0625 228.019531 208.035156 224.332031 209.441406 220.867188 C 210.417969 218.460938 211.105469 216.214844 211.542969 214 C 211.890625 212.253906 212.070312 210.425781 212.070312 208.5625 C 212.070312 192.289062 198.855469 179.046875 182.621094 179.046875 Z M 191.378906 261.351562 L 173.863281 261.351562 C 169.09375 261.351562 165.214844 257.464844 165.214844 252.683594 L 165.214844 249.691406 C 165.0625 242.917969 162.726562 239.628906 160.464844 236.445312 C 159.960938 235.734375 159.484375 235.066406 159.035156 234.359375 C 157.855469 232.5 156.730469 230.574219 155.695312 228.632812 C 152.710938 223.03125 149.660156 216.265625 149.660156 208.5625 C 149.660156 190.34375 164.445312 175.523438 182.621094 175.523438 C 200.796875 175.523438 215.582031 190.34375 215.582031 208.5625 C 215.582031 210.660156 215.382812 212.71875 214.988281 214.6875 C 214.507812 217.121094 213.757812 219.578125 212.699219 222.195312 C 211.210938 225.863281 209.140625 229.730469 206.195312 234.359375 C 205.746094 235.066406 205.269531 235.742188 204.761719 236.453125 C 202.550781 239.566406 200.261719 242.785156 200.027344 249.3125 L 200.027344 252.683594 C 200.027344 257.464844 196.148438 261.351562 191.378906 261.351562 " fill-opacity="1" fill-rule="nonzero"/></g><g clip-path="url(#665c254b98)"><path fill="#231f20" d="M 171.339844 279.023438 L 178.09375 282.292969 C 180.59375 283.5 184.648438 283.5 187.148438 282.292969 L 193.90625 279.023438 L 171.339844 279.023438 " fill-opacity="1" fill-rule="nonzero"/></g><path fill="#231f20" d="M 195.28125 277.867188 C 195.28125 278.839844 194.496094 279.632812 193.523438 279.632812 L 171.71875 279.632812 C 170.746094 279.632812 169.960938 278.839844 169.960938 277.867188 C 169.960938 276.890625 170.746094 276.101562 171.71875 276.101562 L 193.523438 276.101562 C 194.496094 276.101562 195.28125 276.890625 195.28125 277.867188 " fill-opacity="1" fill-rule="nonzero"/><path fill="#231f20" d="M 196.742188 272.789062 C 196.742188 273.765625 195.953125 274.554688 194.984375 274.554688 L 170.261719 274.554688 C 169.289062 274.554688 168.5 273.765625 168.5 272.789062 C 168.5 271.8125 169.289062 271.023438 170.261719 271.023438 L 194.984375 271.023438 C 195.953125 271.023438 196.742188 271.8125 196.742188 272.789062 " fill-opacity="1" fill-rule="nonzero"/><path fill="#231f20" d="M 196.742188 267.710938 C 196.742188 268.6875 195.953125 269.480469 194.984375 269.480469 L 170.261719 269.480469 C 169.289062 269.480469 168.5 268.6875 168.5 267.710938 C 168.5 266.738281 169.289062 265.949219 170.261719 265.949219 L 194.984375 265.949219 C 195.953125 265.949219 196.742188 266.738281 196.742188 267.710938 " fill-opacity="1" fill-rule="nonzero"/><path fill="#231f20" d="M 198.277344 262.636719 C 198.277344 263.609375 197.488281 264.398438 196.515625 264.398438 L 168.726562 264.398438 C 167.757812 264.398438 166.96875 263.609375 166.96875 262.636719 C 166.96875 261.664062 167.757812 260.871094 168.726562 260.871094 L 196.515625 260.871094 C 197.488281 260.871094 198.277344 261.664062 198.277344 262.636719 " fill-opacity="1" fill-rule="nonzero"/><g clip-path="url(#95c3cc26f1)"><path fill="#000000" d="M 306.664062 178.363281 L 281.421875 135.722656 C 280.996094 135.007812 280.226562 134.570312 279.394531 134.570312 C 278.558594 134.570312 277.789062 135.007812 277.367188 135.722656 L 252.117188 178.371094 C 248.382812 183.835938 246.40625 190.234375 246.40625 196.878906 C 246.40625 215.023438 261.203125 229.785156 279.394531 229.785156 C 297.582031 229.785156 312.378906 215.023438 312.378906 196.878906 C 312.378906 190.230469 310.402344 183.828125 306.664062 178.363281 Z M 279.394531 225.085938 C 263.800781 225.085938 251.117188 212.433594 251.117188 196.878906 C 251.117188 191.15625 252.824219 185.652344 256.046875 180.960938 C 256.078125 180.910156 256.109375 180.863281 256.140625 180.8125 L 279.394531 141.539062 L 302.644531 180.8125 C 302.671875 180.855469 302.695312 180.894531 302.726562 180.9375 L 302.730469 180.941406 C 302.730469 180.945312 302.730469 180.945312 302.730469 180.945312 C 302.734375 180.949219 302.734375 180.949219 302.734375 180.953125 C 305.964844 185.652344 307.671875 191.15625 307.671875 196.878906 C 307.671875 212.433594 294.984375 225.085938 279.394531 225.085938 Z M 279.394531 225.085938 " fill-opacity="1" fill-rule="nonzero"/></g><path fill="#000000" d="M 276.109375 213.390625 C 268.820312 213.390625 262.890625 207.476562 262.890625 200.203125 C 262.890625 198.90625 261.835938 197.855469 260.535156 197.855469 C 259.234375 197.855469 258.183594 198.90625 258.183594 200.203125 C 258.183594 210.066406 266.222656 218.089844 276.109375 218.089844 C 277.410156 218.089844 278.464844 217.035156 278.464844 215.738281 C 278.464844 214.441406 277.410156 213.390625 276.109375 213.390625 Z M 276.109375 213.390625 " fill-opacity="1" fill-rule="nonzero"/><g clip-path="url(#a3b18e1ca8)"><path fill="#000000" d="M 230.09375 281.625 C 214.328125 281.625 201.503906 294.375 201.503906 310.046875 C 201.503906 325.71875 214.328125 338.46875 230.09375 338.46875 C 245.859375 338.46875 258.683594 325.71875 258.683594 310.046875 C 258.683594 294.375 245.859375 281.625 230.09375 281.625 Z M 230.09375 284.503906 C 236.660156 284.503906 242.65625 286.964844 247.203125 291.003906 L 242.195312 295.980469 C 241.601562 295.625 240.910156 295.433594 240.164062 295.433594 L 220.023438 295.433594 C 218.492188 295.433594 217.171875 296.25 216.496094 297.613281 L 214.5625 301.511719 L 210.761719 301.511719 C 209.417969 301.511719 208.320312 302.601562 208.320312 303.941406 L 208.320312 305.300781 C 208.320312 306.625 209.390625 307.699219 210.714844 307.726562 C 209.417969 308.992188 208.613281 310.753906 208.613281 312.699219 L 208.613281 319 C 208.613281 319.792969 209.261719 320.4375 210.0625 320.4375 L 211.078125 320.4375 L 211.078125 321.660156 C 211.078125 323.085938 212.082031 324.277344 213.425781 324.585938 L 210.941406 327.054688 C 206.875 322.535156 204.398438 316.574219 204.398438 310.046875 C 204.398438 295.960938 215.925781 284.503906 230.09375 284.503906 Z M 216.242188 321.785156 L 214.097656 321.785156 C 214.035156 321.785156 213.976562 321.726562 213.976562 321.660156 L 213.976562 320.4375 L 216.382812 320.4375 L 216.382812 321.640625 Z M 212.910156 304.851562 L 211.214844 304.851562 L 211.214844 304.390625 L 213.136719 304.390625 Z M 211.507812 317.558594 L 211.507812 312.699219 C 211.507812 310.441406 213.355469 308.601562 215.628906 308.601562 L 229.5 308.601562 L 220.492188 317.558594 Z M 215.703125 305.726562 L 219.09375 298.886719 C 219.277344 298.515625 219.605469 298.3125 220.023438 298.3125 L 239.851562 298.3125 L 232.394531 305.726562 Z M 233.59375 308.601562 L 244.5625 308.601562 C 246.832031 308.601562 248.679688 310.441406 248.679688 312.699219 L 248.679688 317.558594 L 224.585938 317.558594 Z M 243.804688 320.4375 L 246.214844 320.4375 L 246.214844 321.660156 C 246.214844 321.726562 246.15625 321.785156 246.089844 321.785156 L 243.929688 321.785156 C 243.863281 321.785156 243.804688 321.726562 243.804688 321.660156 Z M 248.972656 304.851562 L 247.28125 304.851562 L 247.054688 304.390625 L 248.972656 304.390625 Z M 236.488281 305.726562 L 241.847656 300.398438 L 244.488281 305.726562 Z M 230.09375 335.59375 C 223.53125 335.59375 217.535156 333.132812 212.988281 329.089844 L 221.691406 320.4375 L 240.910156 320.4375 L 240.910156 321.660156 C 240.910156 323.316406 242.265625 324.664062 243.929688 324.664062 L 246.089844 324.664062 C 247.753906 324.664062 249.109375 323.316406 249.109375 321.660156 L 249.109375 320.4375 L 250.128906 320.4375 C 250.929688 320.4375 251.578125 319.792969 251.578125 319 L 251.578125 312.699219 C 251.578125 310.753906 250.769531 308.992188 249.472656 307.726562 C 250.796875 307.699219 251.867188 306.625 251.867188 305.300781 L 251.867188 303.941406 C 251.867188 302.601562 250.773438 301.511719 249.425781 301.511719 L 245.625 301.511719 L 244.007812 298.25 L 249.25 293.039062 C 253.316406 297.5625 255.789062 303.523438 255.789062 310.046875 C 255.789062 324.132812 244.261719 335.59375 230.09375 335.59375 Z M 217.242188 308.945312 C 214.945312 308.945312 213.078125 310.800781 213.078125 313.082031 C 213.078125 315.363281 214.945312 317.21875 217.242188 317.21875 C 219.535156 317.21875 221.402344 315.363281 221.402344 313.082031 C 221.402344 310.800781 219.535156 308.945312 217.242188 308.945312 Z M 217.242188 314.339844 C 216.542969 314.339844 215.976562 313.777344 215.976562 313.082031 C 215.976562 312.386719 216.542969 311.824219 217.242188 311.824219 C 217.941406 311.824219 218.507812 312.386719 218.507812 313.082031 C 218.507812 313.777344 217.941406 314.339844 217.242188 314.339844 Z M 242.949219 308.945312 C 240.652344 308.945312 238.785156 310.800781 238.785156 313.082031 C 238.785156 315.363281 240.652344 317.21875 242.949219 317.21875 C 245.242188 317.21875 247.109375 315.363281 247.109375 313.082031 C 247.109375 310.800781 245.242188 308.945312 242.949219 308.945312 Z M 242.949219 314.339844 C 242.25 314.339844 241.679688 313.777344 241.679688 313.082031 C 241.679688 312.386719 242.25 311.824219 242.949219 311.824219 C 243.644531 311.824219 244.214844 312.386719 244.214844 313.082031 C 244.214844 313.777344 243.648438 314.339844 242.949219 314.339844 Z M 291.257812 272.1875 C 291.257812 268.164062 288.730469 264.582031 285.003906 263.164062 C 283.867188 256.878906 278.367188 252.246094 271.839844 252.246094 C 270.589844 252.246094 269.359375 252.417969 268.171875 252.753906 C 265.515625 250.484375 262.160156 249.242188 258.628906 249.242188 C 250.59375 249.242188 244.046875 255.703125 243.96875 263.675781 C 240.820312 265.347656 238.835938 268.589844 238.835938 272.1875 C 238.835938 277.511719 243.195312 281.84375 248.550781 281.84375 L 281.542969 281.84375 C 286.898438 281.84375 291.257812 277.511719 291.257812 272.1875 Z M 281.542969 278.964844 L 248.550781 278.964844 C 244.789062 278.964844 241.730469 275.925781 241.730469 272.1875 C 241.730469 269.425781 243.402344 266.960938 245.988281 265.90625 C 246.558594 265.675781 246.921875 265.105469 246.886719 264.492188 C 246.871094 264.261719 246.863281 264.035156 246.863281 263.816406 C 246.863281 257.367188 252.144531 252.121094 258.628906 252.121094 C 261.699219 252.121094 264.601562 253.289062 266.808594 255.410156 C 267.203125 255.792969 267.785156 255.917969 268.304688 255.730469 C 269.433594 255.328125 270.625 255.125 271.839844 255.125 C 277.203125 255.125 281.683594 259.117188 282.261719 264.410156 C 282.324219 264.996094 282.746094 265.488281 283.320312 265.640625 C 286.289062 266.445312 288.363281 269.136719 288.363281 272.1875 C 288.363281 275.925781 285.304688 278.964844 281.542969 278.964844 Z M 260.078125 255.644531 C 260.078125 256.441406 259.429688 257.085938 258.628906 257.085938 C 254.894531 257.085938 251.859375 260.105469 251.859375 263.816406 C 251.859375 264.613281 251.210938 265.257812 250.410156 265.257812 C 249.609375 265.257812 248.960938 264.613281 248.960938 263.816406 C 248.960938 258.519531 253.300781 254.207031 258.628906 254.207031 C 259.429688 254.207031 260.078125 254.851562 260.078125 255.644531 Z M 279.679688 302.828125 L 276.574219 307.378906 C 276.304688 307.773438 275.855469 308.007812 275.375 308.007812 C 274.898438 308.007812 274.449219 307.773438 274.179688 307.378906 L 271.074219 302.828125 C 270.625 302.167969 270.796875 301.273438 271.457031 300.828125 C 272.121094 300.382812 273.019531 300.554688 273.46875 301.210938 L 273.929688 301.886719 L 273.929688 289.679688 C 273.929688 288.882812 274.578125 288.238281 275.375 288.238281 C 276.175781 288.238281 276.824219 288.882812 276.824219 289.679688 L 276.824219 301.886719 L 277.285156 301.210938 C 277.734375 300.554688 278.632812 300.382812 279.296875 300.828125 C 279.957031 301.273438 280.128906 302.167969 279.679688 302.828125 Z M 268.351562 297.429688 L 265.246094 301.980469 C 264.976562 302.375 264.527344 302.613281 264.050781 302.613281 C 263.570312 302.613281 263.121094 302.375 262.851562 301.980469 L 259.746094 297.429688 C 259.296875 296.773438 259.46875 295.878906 260.132812 295.433594 C 260.792969 294.984375 261.691406 295.15625 262.140625 295.816406 L 262.601562 296.488281 L 262.601562 284.28125 C 262.601562 283.488281 263.25 282.84375 264.050781 282.84375 C 264.847656 282.84375 265.496094 283.488281 265.496094 284.28125 L 265.496094 296.488281 L 265.957031 295.816406 C 266.40625 295.15625 267.304688 294.984375 267.96875 295.433594 C 268.628906 295.878906 268.800781 296.773438 268.351562 297.429688 Z M 291.007812 297.429688 L 287.902344 301.980469 C 287.632812 302.375 287.183594 302.613281 286.703125 302.613281 C 286.222656 302.613281 285.777344 302.375 285.507812 301.980469 L 282.402344 297.429688 C 281.953125 296.773438 282.125 295.878906 282.785156 295.433594 C 283.445312 294.984375 284.347656 295.15625 284.796875 295.816406 L 285.257812 296.488281 L 285.257812 284.28125 C 285.257812 283.488281 285.90625 282.84375 286.703125 282.84375 C 287.503906 282.84375 288.152344 283.488281 288.152344 284.28125 L 288.152344 296.488281 L 288.613281 295.816406 C 289.058594 295.15625 289.960938 294.984375 290.621094 295.433594 C 291.285156 295.878906 291.457031 296.773438 291.007812 297.429688 Z M 291.007812 297.429688 " fill-opacity="1" fill-rule="nonzero"/></g></svg>