<svg xmlns="http://www.w3.org/2000/svg" xmlns:xlink="http://www.w3.org/1999/xlink" width="612" zoomAndPan="magnify" viewBox="0 0 458.88 458.999989" height="612" preserveAspectRatio="xMidYMid meet" version="1.0"><defs><clipPath id="f5fddca988"><path d="M 0 0.0585938 L 458.761719 0.0585938 L 458.761719 458.9375 L 0 458.9375 Z M 0 0.0585938 " clip-rule="nonzero"/></clipPath><clipPath id="2c4d592af2"><path d="M 172.125 297.253906 L 192.589844 297.253906 L 192.589844 317.480469 L 172.125 317.480469 Z M 172.125 297.253906 " clip-rule="nonzero"/></clipPath><clipPath id="f742129b0e"><path d="M 301.15625 198.382812 L 321.167969 198.382812 L 321.167969 218.628906 L 301.15625 218.628906 Z M 301.15625 198.382812 " clip-rule="nonzero"/></clipPath><clipPath id="c837e2b2d7"><path d="M 218 141.511719 L 239 141.511719 L 239 162 L 218 162 Z M 218 141.511719 " clip-rule="nonzero"/></clipPath><clipPath id="c02ad3728e"><path d="M 82.105469 231 L 228.699219 231 L 228.699219 379.230469 L 82.105469 379.230469 Z M 82.105469 231 " clip-rule="nonzero"/></clipPath><clipPath id="f9fb6a6973"><path d="M 249 80.058594 L 296 80.058594 L 296 124 L 249 124 Z M 249 80.058594 " clip-rule="nonzero"/></clipPath><clipPath id="62481ef051"><path d="M 290 158.734375 L 365.355469 158.734375 L 365.355469 359 L 290 359 Z M 290 158.734375 " clip-rule="nonzero"/></clipPath></defs><g clip-path="url(#f5fddca988)"><path fill="#ffffff" d="M 0 0.0585938 L 458.878906 0.0585938 L 458.878906 458.941406 L 0 458.941406 Z M 0 0.0585938 " fill-opacity="1" fill-rule="nonzero"/><path fill="#ffffff" d="M 0 0.0585938 L 458.878906 0.0585938 L 458.878906 458.941406 L 0 458.941406 Z M 0 0.0585938 " fill-opacity="1" fill-rule="nonzero"/></g><path fill="#000000" d="M 160.640625 210.179688 C 165.75 214.242188 170.09375 220.773438 170.09375 220.773438 C 165.808594 220.027344 159.894531 221.160156 156.414062 222 C 155.640625 225.683594 155.371094 229.347656 155.640625 232.976562 C 157.203125 253.878906 188.273438 245.523438 188.273438 245.523438 C 178.019531 244.191406 173.519531 240.140625 171.707031 237.738281 C 171.160156 237.015625 171.734375 235.972656 172.640625 236.054688 C 192.570312 237.820312 210.1875 246.816406 210.1875 246.816406 C 208.300781 229.964844 200.34375 220.515625 193.128906 215.324219 C 184.65625 209.230469 182.585938 197.523438 188.199219 188.71875 C 194.285156 179.167969 201.605469 170.414062 201.605469 170.414062 C 181.355469 182.898438 167.539062 196.507812 160.640625 210.179688 " fill-opacity="1" fill-rule="nonzero"/><path fill="#000000" d="M 158.421875 215.816406 C 160.144531 210.519531 157.242188 204.828125 151.945312 203.105469 C 146.648438 201.382812 140.953125 204.28125 139.234375 209.582031 C 137.511719 214.878906 140.410156 220.570312 145.710938 222.292969 C 151.007812 224.015625 156.699219 221.117188 158.421875 215.816406 " fill-opacity="1" fill-rule="nonzero"/><path fill="#000000" d="M 183.558594 295.378906 C 188.996094 291.773438 196.554688 289.660156 196.554688 289.660156 C 194.519531 293.507812 193.769531 299.480469 193.488281 303.050781 C 196.753906 304.925781 200.160156 306.316406 203.691406 307.175781 C 224.050781 312.152344 225.707031 280.019531 225.707031 280.019531 C 221.273438 289.363281 216.03125 292.390625 213.1875 293.371094 C 212.328125 293.667969 211.515625 292.800781 211.871094 291.964844 C 219.710938 273.550781 233.710938 259.578125 233.710938 259.578125 C 217.101562 256.164062 205.65625 260.8125 198.488281 266.070312 C 190.074219 272.246094 178.300781 270.597656 171.660156 262.539062 C 164.460938 253.796875 158.398438 244.128906 158.398438 244.128906 C 164.007812 267.246094 172.683594 284.589844 183.558594 295.378906 " fill-opacity="1" fill-rule="nonzero"/><g clip-path="url(#2c4d592af2)"><path fill="#000000" d="M 188.230469 299.230469 C 183.722656 295.957031 177.414062 296.957031 174.140625 301.460938 C 170.867188 305.96875 171.863281 312.277344 176.371094 315.554688 C 180.878906 318.828125 187.1875 317.828125 190.464844 313.320312 C 193.738281 308.8125 192.738281 302.503906 188.230469 299.230469 " fill-opacity="1" fill-rule="nonzero"/></g><path fill="#000000" d="M 271.664062 299.914062 C 269.921875 293.625 270.246094 285.785156 270.246094 285.785156 C 273.273438 288.90625 278.722656 291.46875 282.035156 292.835938 C 284.824219 290.308594 287.199219 287.5 289.109375 284.410156 C 300.132812 266.582031 270.085938 255.078125 270.085938 255.078125 C 277.601562 262.179688 278.859375 268.105469 278.914062 271.109375 C 278.929688 272.019531 277.855469 272.527344 277.167969 271.929688 C 262.078125 258.78125 253.113281 241.148438 253.113281 241.148438 C 244.738281 255.890625 245.621094 268.214844 248.40625 276.652344 C 251.679688 286.566406 246.472656 297.253906 236.757812 301.078125 C 226.21875 305.222656 215.152344 308.003906 215.152344 308.003906 C 238.871094 309.808594 258.046875 306.917969 271.664062 299.914062 " fill-opacity="1" fill-rule="nonzero"/><path fill="#000000" d="M 276.773438 296.65625 C 272.269531 299.929688 271.269531 306.238281 274.542969 310.746094 C 277.816406 315.253906 284.128906 316.253906 288.632812 312.980469 C 293.140625 309.703125 294.140625 303.394531 290.867188 298.886719 C 287.589844 294.378906 281.28125 293.382812 276.773438 296.65625 " fill-opacity="1" fill-rule="nonzero"/><path fill="#000000" d="M 303.207031 217.515625 C 296.683594 217.234375 289.332031 214.5 289.332031 214.5 C 293.234375 212.585938 297.355469 208.195312 299.679688 205.46875 C 298.140625 202.035156 296.203125 198.910156 293.851562 196.132812 C 280.304688 180.144531 260.078125 205.164062 260.078125 205.164062 C 269.152344 200.214844 275.175781 200.84375 278.054688 201.722656 C 278.921875 201.988281 279.070312 203.167969 278.292969 203.636719 C 261.128906 213.921875 241.585938 217 241.585938 217 C 253.019531 229.523438 265.011719 232.492188 273.898438 232.449219 C 284.335938 232.398438 292.890625 240.65625 293.527344 251.074219 C 294.214844 262.378906 293.4375 273.765625 293.4375 273.765625 C 302.484375 251.761719 305.660156 232.632812 303.207031 217.515625 " fill-opacity="1" fill-rule="nonzero"/><g clip-path="url(#f742129b0e)"><path fill="#000000" d="M 301.6875 211.652344 C 303.410156 216.949219 309.101562 219.851562 314.398438 218.128906 C 319.699219 216.40625 322.597656 210.714844 320.875 205.417969 C 319.15625 200.117188 313.464844 197.21875 308.164062 198.941406 C 302.867188 200.660156 299.964844 206.351562 301.6875 211.652344 " fill-opacity="1" fill-rule="nonzero"/></g><path fill="#000000" d="M 234.589844 162.058594 C 232.304688 168.171875 227.433594 174.324219 227.433594 174.324219 C 226.816406 170.015625 223.917969 164.742188 222.042969 161.691406 C 218.296875 162.09375 214.726562 162.96875 211.363281 164.347656 C 191.96875 172.289062 209.515625 199.261719 209.515625 199.261719 C 207.609375 189.097656 210.074219 183.5625 211.796875 181.097656 C 212.320312 180.355469 213.484375 180.578125 213.6875 181.464844 C 218.167969 200.96875 215.058594 220.503906 215.058594 220.503906 C 230.5 213.5 237.027344 203.011719 239.734375 194.546875 C 242.914062 184.601562 253.410156 179.019531 263.511719 181.632812 C 274.476562 184.472656 285.066406 188.730469 285.066406 188.730469 C 266.9375 173.328125 249.722656 164.394531 234.589844 162.058594 " fill-opacity="1" fill-rule="nonzero"/><g clip-path="url(#c837e2b2d7)"><path fill="#000000" d="M 228.542969 161.691406 C 234.113281 161.691406 238.628906 157.171875 238.628906 151.601562 C 238.628906 146.03125 234.113281 141.511719 228.542969 141.511719 C 222.96875 141.511719 218.453125 146.03125 218.453125 151.601562 C 218.453125 157.171875 222.96875 161.691406 228.542969 161.691406 " fill-opacity="1" fill-rule="nonzero"/></g><path fill="#212121" d="M 71.011719 273.484375 C 70.296875 273.484375 69.570312 273.324219 68.886719 272.988281 C 66.496094 271.808594 65.507812 268.917969 66.683594 266.519531 L 82.644531 234.023438 C 83.40625 232.46875 84.949219 231.441406 86.671875 231.335938 C 88.402344 231.230469 90.054688 232.054688 91.003906 233.503906 L 110.863281 263.722656 C 112.328125 265.953125 111.714844 268.949219 109.488281 270.414062 C 107.261719 271.882812 104.265625 271.261719 102.804688 269.035156 L 87.578125 245.871094 L 75.34375 270.785156 C 74.503906 272.492188 72.792969 273.484375 71.011719 273.484375 " fill-opacity="1" fill-rule="evenodd"/><g clip-path="url(#c02ad3728e)"><path fill="#212121" d="M 223.734375 379.230469 C 204.617188 379.230469 186.070312 375.445312 168.609375 367.980469 C 151.746094 360.773438 136.601562 350.453125 123.605469 337.3125 C 110.609375 324.171875 100.402344 308.875 93.273438 291.832031 C 85.894531 274.199219 82.152344 255.46875 82.152344 236.15625 C 82.152344 233.488281 84.3125 231.328125 86.976562 231.328125 C 89.640625 231.328125 91.804688 233.488281 91.804688 236.15625 C 91.804688 309.722656 150.988281 369.570312 223.738281 369.570312 C 226.398438 369.570312 228.5625 371.730469 228.5625 374.398438 C 228.5625 377.066406 226.398438 379.230469 223.734375 379.230469 " fill-opacity="1" fill-rule="evenodd"/></g><g clip-path="url(#f9fb6a6973)"><path fill="#212121" d="M 254.703125 123.105469 C 252.207031 123.105469 250.09375 121.179688 249.898438 118.648438 C 249.695312 115.988281 251.679688 113.664062 254.339844 113.457031 L 281.839844 111.328125 L 266.234375 88.269531 C 264.738281 86.0625 265.316406 83.058594 267.523438 81.5625 C 269.730469 80.0625 272.730469 80.644531 274.226562 82.851562 L 294.492188 112.796875 C 295.457031 114.222656 295.585938 116.054688 294.839844 117.601562 C 294.09375 119.15625 292.578125 120.191406 290.867188 120.320312 L 255.082031 123.089844 C 254.957031 123.101562 254.828125 123.105469 254.703125 123.105469 " fill-opacity="1" fill-rule="evenodd"/></g><path fill="#212121" d="M 104.375 173.503906 C 103.582031 173.503906 102.78125 173.308594 102.039062 172.898438 C 99.710938 171.609375 98.863281 168.667969 100.15625 166.332031 C 109.511719 149.421875 121.878906 134.878906 136.90625 123.101562 C 151.425781 111.726562 167.796875 103.410156 185.5625 98.382812 C 203.214844 93.386719 221.363281 91.894531 239.503906 93.9375 C 258.285156 96.054688 276.238281 101.894531 292.867188 111.300781 C 295.1875 112.613281 296.003906 115.558594 294.695312 117.882812 C 293.386719 120.203125 290.441406 121.023438 288.121094 119.710938 C 257.484375 102.390625 221.988281 98.117188 188.183594 107.683594 C 154.128906 117.316406 125.863281 139.808594 108.597656 171.015625 C 107.714844 172.609375 106.070312 173.503906 104.375 173.503906 " fill-opacity="1" fill-rule="evenodd"/><path fill="#212121" d="M 295.316406 358.785156 C 293.757812 358.785156 292.285156 358.03125 291.375 356.742188 C 290.378906 355.335938 290.210938 353.503906 290.925781 351.941406 L 306.007812 319.015625 C 307.121094 316.59375 309.984375 315.527344 312.40625 316.640625 C 314.828125 317.753906 315.894531 320.617188 314.78125 323.046875 L 303.175781 348.386719 L 330.625 345.882812 C 333.277344 345.640625 335.625 347.597656 335.867188 350.253906 C 336.109375 352.914062 334.15625 355.261719 331.5 355.503906 L 295.757812 358.765625 C 295.605469 358.777344 295.460938 358.785156 295.316406 358.785156 " fill-opacity="1" fill-rule="evenodd"/><g clip-path="url(#62481ef051)"><path fill="#212121" d="M 295.316406 358.785156 C 293.707031 358.785156 292.125 357.972656 291.210938 356.5 C 289.808594 354.234375 290.503906 351.253906 292.769531 349.847656 C 354.78125 311.34375 374.238281 229.011719 336.144531 166.3125 C 334.757812 164.035156 335.480469 161.0625 337.757812 159.675781 C 340.03125 158.289062 343.003906 159.015625 344.386719 161.292969 C 354.386719 177.746094 360.898438 195.6875 363.742188 214.621094 C 366.488281 232.90625 365.714844 251.335938 361.445312 269.40625 C 357.171875 287.46875 349.617188 304.265625 338.988281 319.320312 C 327.976562 334.917969 314.144531 347.949219 297.859375 358.058594 C 297.066406 358.546875 296.183594 358.785156 295.316406 358.785156 " fill-opacity="1" fill-rule="evenodd"/></g></svg>