<svg xmlns="http://www.w3.org/2000/svg" xmlns:xlink="http://www.w3.org/1999/xlink" width="612" zoomAndPan="magnify" viewBox="0 0 458.88 458.999989" height="612" preserveAspectRatio="xMidYMid meet" version="1.0"><defs><clipPath id="be7c8cacc2"><path d="M 0 0.0585938 L 458.761719 0.0585938 L 458.761719 458.9375 L 0 458.9375 Z M 0 0.0585938 " clip-rule="nonzero"/></clipPath><clipPath id="4f5ae9cdca"><path d="M 138 209 L 320 209 L 320 315.800781 L 138 315.800781 Z M 138 209 " clip-rule="nonzero"/></clipPath><clipPath id="3bcc4f7525"><path d="M 204 143.34375 L 280 143.34375 L 280 223 L 204 223 Z M 204 143.34375 " clip-rule="nonzero"/></clipPath><clipPath id="fa8f6112c3"><path d="M 96.042969 231 L 242.632812 231 L 242.632812 379.230469 L 96.042969 379.230469 Z M 96.042969 231 " clip-rule="nonzero"/></clipPath><clipPath id="41faccaf56"><path d="M 263 80.058594 L 310 80.058594 L 310 124 L 263 124 Z M 263 80.058594 " clip-rule="nonzero"/></clipPath><clipPath id="ba6daebdce"><path d="M 304 158.734375 L 379.292969 158.734375 L 379.292969 359 L 304 359 Z M 304 158.734375 " clip-rule="nonzero"/></clipPath></defs><g clip-path="url(#be7c8cacc2)"><path fill="#ffffff" d="M 0 0.0585938 L 458.878906 0.0585938 L 458.878906 458.941406 L 0 458.941406 Z M 0 0.0585938 " fill-opacity="1" fill-rule="nonzero"/><path fill="#ffffff" d="M 0 0.0585938 L 458.878906 0.0585938 L 458.878906 458.941406 L 0 458.941406 Z M 0 0.0585938 " fill-opacity="1" fill-rule="nonzero"/></g><g clip-path="url(#4f5ae9cdca)"><path fill="#000000" d="M 314.679688 214.082031 C 311.632812 211.039062 307.582031 209.363281 303.273438 209.363281 C 298.964844 209.363281 294.910156 211.039062 291.863281 214.085938 L 269.335938 236.617188 C 268.148438 235.910156 266.867188 235.367188 265.535156 234.984375 C 265.421875 234.949219 265.3125 234.917969 265.203125 234.890625 C 264.664062 234.746094 264.117188 234.632812 263.5625 234.546875 C 263.410156 234.519531 263.261719 234.492188 263.109375 234.472656 C 262.433594 234.386719 261.75 234.328125 261.054688 234.328125 L 261.050781 234.328125 L 191.4375 234.339844 C 184.941406 234.339844 178.769531 236.828125 174 241.417969 L 139.550781 275.847656 C 138.605469 276.792969 138.070312 278.074219 138.070312 279.414062 C 138.070312 280.757812 138.601562 282.039062 139.550781 282.988281 L 170.910156 314.351562 C 171.855469 315.296875 173.140625 315.828125 174.480469 315.828125 C 175.820312 315.828125 177.105469 315.296875 178.050781 314.351562 L 192.539062 299.859375 L 245.058594 299.859375 C 249.367188 299.859375 253.414062 298.179688 256.460938 295.132812 L 314.6875 236.90625 C 320.972656 230.617188 320.972656 220.378906 314.679688 214.082031 Z M 307.546875 229.769531 L 249.320312 287.992188 C 248.179688 289.136719 246.664062 289.761719 245.042969 289.761719 L 190.441406 289.761719 C 189.105469 289.761719 187.820312 290.296875 186.875 291.242188 L 174.476562 303.640625 L 150.257812 279.417969 L 181.066406 248.628906 C 183.878906 245.921875 187.558594 244.433594 191.441406 244.433594 L 261.050781 244.421875 C 262.835938 244.421875 264.527344 245.246094 265.695312 246.679688 C 265.753906 246.753906 265.832031 246.808594 265.898438 246.878906 C 266.671875 247.921875 267.09375 249.148438 267.09375 250.457031 C 267.09375 252.074219 266.464844 253.589844 265.324219 254.734375 C 264.183594 255.875 262.667969 256.5 261.054688 256.5 C 261.054688 256.5 261.054688 256.5 261.050781 256.5 L 222.652344 256.5 C 219.867188 256.5 217.605469 258.761719 217.605469 261.546875 C 217.605469 264.335938 219.867188 266.597656 222.652344 266.597656 L 261.046875 266.597656 C 261.050781 266.597656 261.054688 266.597656 261.0625 266.597656 C 265.367188 266.597656 269.414062 264.917969 272.460938 261.871094 C 275.507812 258.824219 277.183594 254.769531 277.183594 250.460938 C 277.183594 248.332031 276.75 246.238281 275.941406 244.289062 L 299 221.222656 C 301.28125 218.945312 305.265625 218.945312 307.542969 221.222656 C 309.902344 223.578125 309.902344 227.410156 307.546875 229.769531 Z M 307.546875 229.769531 " fill-opacity="1" fill-rule="nonzero"/></g><g clip-path="url(#3bcc4f7525)"><path fill="#000000" d="M 224.574219 222.945312 C 224.742188 222.945312 224.902344 222.914062 225.0625 222.898438 C 225.171875 222.90625 225.273438 222.933594 225.382812 222.9375 C 225.707031 222.941406 226.027344 222.945312 226.347656 222.945312 C 240.527344 222.945312 253.808594 217.453125 263.84375 207.414062 C 274.109375 197.152344 279.621094 183.496094 279.367188 168.953125 C 279.320312 166.238281 277.125 164.042969 274.410156 163.996094 C 263.140625 163.792969 252.402344 167.078125 243.355469 173.34375 C 241.332031 162.675781 236.09375 152.917969 228.085938 145.179688 C 226.128906 143.292969 223.03125 143.289062 221.074219 145.179688 C 210.613281 155.277344 204.847656 168.835938 204.847656 183.351562 C 204.847656 197.875 210.609375 211.429688 221.074219 221.527344 C 222.050781 222.472656 223.3125 222.945312 224.574219 222.945312 Z M 256.707031 200.277344 C 250.9375 206.039062 243.835938 209.921875 236.097656 211.707031 C 241.050781 203.921875 243.863281 194.984375 244.246094 185.578125 C 251.15625 179.152344 259.765625 175.226562 269.058594 174.296875 C 268.074219 184.117188 263.785156 193.195312 256.707031 200.277344 Z M 224.578125 156.25 C 230.820312 163.886719 234.207031 173.34375 234.207031 183.359375 C 234.207031 193.371094 230.816406 202.820312 224.574219 210.460938 C 218.332031 202.824219 214.941406 193.371094 214.941406 183.351562 C 214.941406 173.335938 218.332031 163.886719 224.578125 156.25 Z M 224.578125 156.25 " fill-opacity="1" fill-rule="nonzero"/></g><path fill="#212121" d="M 84.949219 273.484375 C 84.230469 273.484375 83.507812 273.324219 82.820312 272.988281 C 80.433594 271.808594 79.445312 268.917969 80.621094 266.519531 L 96.582031 234.023438 C 97.34375 232.46875 98.886719 231.441406 100.609375 231.335938 C 102.335938 231.230469 103.988281 232.054688 104.941406 233.503906 L 124.800781 263.722656 C 126.265625 265.949219 125.652344 268.949219 123.421875 270.414062 C 121.199219 271.882812 118.203125 271.261719 116.742188 269.035156 L 101.515625 245.871094 L 89.28125 270.785156 C 88.441406 272.492188 86.730469 273.484375 84.949219 273.484375 " fill-opacity="1" fill-rule="evenodd"/><g clip-path="url(#fa8f6112c3)"><path fill="#212121" d="M 237.671875 379.230469 C 218.554688 379.230469 200.007812 375.445312 182.542969 367.980469 C 165.683594 360.773438 150.539062 350.453125 137.542969 337.3125 C 124.546875 324.171875 114.339844 308.875 107.210938 291.832031 C 99.832031 274.199219 96.085938 255.46875 96.085938 236.15625 C 96.085938 233.488281 98.25 231.328125 100.914062 231.328125 C 103.578125 231.328125 105.742188 233.488281 105.742188 236.15625 C 105.742188 309.722656 164.921875 369.570312 237.671875 369.570312 C 240.335938 369.570312 242.5 371.730469 242.5 374.398438 C 242.5 377.066406 240.335938 379.230469 237.671875 379.230469 " fill-opacity="1" fill-rule="evenodd"/></g><g clip-path="url(#41faccaf56)"><path fill="#212121" d="M 268.640625 123.105469 C 266.144531 123.105469 264.03125 121.179688 263.835938 118.648438 C 263.632812 115.988281 265.617188 113.664062 268.273438 113.457031 L 295.777344 111.328125 L 280.171875 88.269531 C 278.675781 86.0625 279.253906 83.058594 281.460938 81.5625 C 283.667969 80.0625 286.667969 80.644531 288.164062 82.851562 L 308.425781 112.796875 C 309.390625 114.222656 309.523438 116.050781 308.777344 117.601562 C 308.03125 119.15625 306.515625 120.191406 304.804688 120.320312 L 269.015625 123.089844 C 268.894531 123.101562 268.765625 123.105469 268.640625 123.105469 " fill-opacity="1" fill-rule="evenodd"/></g><path fill="#212121" d="M 118.3125 173.503906 C 117.519531 173.503906 116.71875 173.308594 115.976562 172.898438 C 113.644531 171.609375 112.800781 168.667969 114.09375 166.332031 C 123.449219 149.421875 135.816406 134.878906 150.84375 123.101562 C 165.363281 111.726562 181.734375 103.410156 199.496094 98.382812 C 217.152344 93.386719 235.300781 91.894531 253.4375 93.9375 C 272.222656 96.054688 290.175781 101.894531 306.804688 111.300781 C 309.125 112.613281 309.941406 115.558594 308.632812 117.878906 C 307.324219 120.203125 304.378906 121.023438 302.058594 119.710938 C 271.417969 102.390625 235.925781 98.117188 202.121094 107.683594 C 168.066406 117.316406 139.800781 139.808594 122.53125 171.015625 C 121.652344 172.605469 120.007812 173.503906 118.3125 173.503906 " fill-opacity="1" fill-rule="evenodd"/><path fill="#212121" d="M 309.25 358.785156 C 307.695312 358.785156 306.222656 358.03125 305.3125 356.742188 C 304.316406 355.335938 304.148438 353.503906 304.863281 351.941406 L 319.945312 319.015625 C 321.058594 316.59375 323.921875 315.527344 326.34375 316.640625 C 328.761719 317.753906 329.832031 320.617188 328.71875 323.046875 L 317.113281 348.386719 L 344.5625 345.882812 C 347.214844 345.640625 349.5625 347.597656 349.804688 350.253906 C 350.046875 352.914062 348.09375 355.261719 345.4375 355.503906 L 309.695312 358.765625 C 309.542969 358.777344 309.394531 358.785156 309.25 358.785156 " fill-opacity="1" fill-rule="evenodd"/><g clip-path="url(#ba6daebdce)"><path fill="#212121" d="M 309.253906 358.785156 C 307.640625 358.785156 306.0625 357.972656 305.148438 356.5 C 303.746094 354.234375 304.441406 351.253906 306.707031 349.847656 C 368.71875 311.34375 388.175781 229.011719 350.082031 166.3125 C 348.695312 164.035156 349.417969 161.0625 351.695312 159.675781 C 353.96875 158.289062 356.941406 159.015625 358.324219 161.292969 C 368.324219 177.746094 374.835938 195.6875 377.679688 214.621094 C 380.425781 232.90625 379.652344 251.335938 375.382812 269.402344 C 371.109375 287.46875 363.554688 304.265625 352.925781 319.320312 C 341.914062 334.917969 328.078125 347.949219 311.792969 358.058594 C 311.003906 358.546875 310.121094 358.785156 309.253906 358.785156 " fill-opacity="1" fill-rule="evenodd"/></g></svg>