<svg xmlns="http://www.w3.org/2000/svg" xmlns:xlink="http://www.w3.org/1999/xlink" width="612" zoomAndPan="magnify" viewBox="0 0 458.88 458.999989" height="612" preserveAspectRatio="xMidYMid meet" version="1.0"><defs><clipPath id="f9f7899823"><path d="M 96.042969 231 L 242.632812 231 L 242.632812 379.230469 L 96.042969 379.230469 Z M 96.042969 231 " clip-rule="nonzero"/></clipPath><clipPath id="d0bb01ac46"><path d="M 263 80.058594 L 310 80.058594 L 310 124 L 263 124 Z M 263 80.058594 " clip-rule="nonzero"/></clipPath><clipPath id="756f6f653d"><path d="M 304 158.734375 L 379.292969 158.734375 L 379.292969 359 L 304 359 Z M 304 158.734375 " clip-rule="nonzero"/></clipPath><clipPath id="caac687f00"><path d="M 136.546875 162.152344 L 322.5 162.152344 L 322.5 297.117188 L 136.546875 297.117188 Z M 136.546875 162.152344 " clip-rule="nonzero"/></clipPath></defs><path fill="#212121" d="M 84.949219 273.484375 C 84.230469 273.484375 83.507812 273.324219 82.820312 272.988281 C 80.433594 271.808594 79.445312 268.917969 80.621094 266.519531 L 96.582031 234.023438 C 97.34375 232.46875 98.886719 231.441406 100.609375 231.335938 C 102.335938 231.230469 103.988281 232.054688 104.941406 233.503906 L 124.800781 263.722656 C 126.265625 265.953125 125.652344 268.949219 123.421875 270.414062 C 121.199219 271.882812 118.203125 271.261719 116.742188 269.035156 L 101.515625 245.871094 L 89.28125 270.785156 C 88.441406 272.492188 86.730469 273.484375 84.949219 273.484375 " fill-opacity="1" fill-rule="evenodd"/><g clip-path="url(#f9f7899823)"><path fill="#212121" d="M 237.671875 379.230469 C 218.554688 379.230469 200.007812 375.445312 182.542969 367.980469 C 165.683594 360.773438 150.539062 350.453125 137.542969 337.3125 C 124.546875 324.171875 114.339844 308.875 107.210938 291.832031 C 99.832031 274.199219 96.085938 255.46875 96.085938 236.15625 C 96.085938 233.488281 98.25 231.328125 100.914062 231.328125 C 103.578125 231.328125 105.742188 233.488281 105.742188 236.15625 C 105.742188 309.722656 164.921875 369.570312 237.671875 369.570312 C 240.335938 369.570312 242.5 371.730469 242.5 374.398438 C 242.5 377.066406 240.335938 379.230469 237.671875 379.230469 " fill-opacity="1" fill-rule="evenodd"/></g><g clip-path="url(#d0bb01ac46)"><path fill="#212121" d="M 268.640625 123.105469 C 266.144531 123.105469 264.03125 121.179688 263.835938 118.648438 C 263.632812 115.988281 265.617188 113.664062 268.273438 113.457031 L 295.777344 111.328125 L 280.171875 88.269531 C 278.675781 86.0625 279.253906 83.058594 281.460938 81.5625 C 283.667969 80.0625 286.667969 80.644531 288.164062 82.851562 L 308.425781 112.796875 C 309.390625 114.222656 309.523438 116.054688 308.777344 117.601562 C 308.03125 119.15625 306.515625 120.191406 304.804688 120.320312 L 269.015625 123.089844 C 268.894531 123.101562 268.765625 123.105469 268.640625 123.105469 " fill-opacity="1" fill-rule="evenodd"/></g><path fill="#212121" d="M 118.3125 173.503906 C 117.519531 173.503906 116.71875 173.308594 115.976562 172.898438 C 113.644531 171.609375 112.800781 168.667969 114.09375 166.332031 C 123.449219 149.421875 135.816406 134.878906 150.84375 123.101562 C 165.363281 111.726562 181.734375 103.410156 199.496094 98.382812 C 217.152344 93.386719 235.300781 91.894531 253.4375 93.9375 C 272.222656 96.054688 290.175781 101.894531 306.804688 111.300781 C 309.125 112.613281 309.941406 115.558594 308.632812 117.882812 C 307.324219 120.203125 304.378906 121.023438 302.058594 119.710938 C 271.417969 102.390625 235.925781 98.117188 202.121094 107.683594 C 168.066406 117.316406 139.800781 139.808594 122.53125 171.015625 C 121.652344 172.609375 120.007812 173.503906 118.3125 173.503906 " fill-opacity="1" fill-rule="evenodd"/><path fill="#212121" d="M 309.25 358.785156 C 307.695312 358.785156 306.222656 358.03125 305.3125 356.742188 C 304.316406 355.335938 304.148438 353.503906 304.863281 351.941406 L 319.945312 319.015625 C 321.058594 316.59375 323.921875 315.527344 326.34375 316.640625 C 328.761719 317.753906 329.832031 320.617188 328.71875 323.046875 L 317.113281 348.386719 L 344.5625 345.882812 C 347.214844 345.640625 349.5625 347.597656 349.804688 350.253906 C 350.046875 352.914062 348.09375 355.261719 345.4375 355.503906 L 309.695312 358.765625 C 309.542969 358.777344 309.394531 358.785156 309.25 358.785156 " fill-opacity="1" fill-rule="evenodd"/><g clip-path="url(#756f6f653d)"><path fill="#212121" d="M 309.253906 358.785156 C 307.640625 358.785156 306.0625 357.972656 305.148438 356.5 C 303.746094 354.234375 304.441406 351.253906 306.707031 349.847656 C 368.71875 311.34375 388.175781 229.011719 350.082031 166.3125 C 348.695312 164.035156 349.417969 161.0625 351.695312 159.675781 C 353.96875 158.289062 356.941406 159.015625 358.324219 161.292969 C 368.324219 177.746094 374.835938 195.6875 377.679688 214.621094 C 380.425781 232.90625 379.652344 251.335938 375.382812 269.40625 C 371.109375 287.46875 363.554688 304.265625 352.925781 319.320312 C 341.914062 334.917969 328.078125 347.949219 311.792969 358.058594 C 311.003906 358.546875 310.121094 358.785156 309.253906 358.785156 " fill-opacity="1" fill-rule="evenodd"/></g><g clip-path="url(#caac687f00)"><path fill="#000000" d="M 183.535156 240.800781 L 163.316406 223.613281 C 162.503906 222.921875 161.261719 223.496094 161.261719 224.5625 L 161.261719 232.570312 L 139.042969 232.570312 C 137.667969 232.570312 136.546875 233.691406 136.546875 235.066406 L 136.546875 248.4375 C 136.546875 249.8125 137.667969 250.933594 139.042969 250.933594 L 161.261719 250.933594 L 161.261719 258.941406 C 161.261719 260.007812 162.503906 260.582031 163.316406 259.890625 L 183.535156 242.703125 C 184.121094 242.203125 184.121094 241.300781 183.535156 240.800781 Z M 278.519531 197.449219 L 265.773438 241.753906 L 270.71875 289.183594 C 270.308594 293.648438 266.519531 297.042969 261.941406 297.042969 L 197.101562 297.042969 C 192.527344 297.042969 188.738281 293.648438 188.328125 289.183594 L 193.273438 241.753906 L 180.5 197.363281 Z M 226.367188 269.300781 C 226.367188 271.007812 227.75 272.394531 229.453125 272.394531 C 231.160156 272.394531 232.539062 271.007812 232.539062 269.300781 L 232.679688 214.191406 C 232.679688 212.484375 231.296875 211.097656 229.59375 211.097656 C 227.886719 211.097656 226.503906 212.484375 226.503906 214.191406 Z M 246.1875 268.808594 C 246.21875 270.515625 247.628906 271.875 249.332031 271.839844 C 251.039062 271.804688 252.394531 270.394531 252.359375 268.6875 L 251.722656 241.019531 L 257.335938 214.511719 C 257.6875 212.835938 256.621094 211.191406 254.949219 210.839844 C 253.277344 210.484375 251.636719 211.550781 251.28125 213.226562 L 245.605469 240.0625 C 245.558594 240.292969 245.535156 240.527344 245.539062 240.761719 Z M 211.742188 240.761719 C 211.746094 240.523438 211.726562 240.289062 211.675781 240.0625 L 206 213.226562 C 205.648438 211.550781 204.003906 210.484375 202.332031 210.839844 C 200.660156 211.191406 199.59375 212.835938 199.949219 214.511719 L 205.558594 241.019531 L 204.921875 268.6875 C 204.890625 270.394531 206.246094 271.804688 207.949219 271.839844 C 209.652344 271.875 211.0625 270.515625 211.097656 268.808594 Z M 172.558594 191.171875 L 286.488281 191.273438 L 286.488281 181.617188 C 286.488281 177.78125 281.667969 175.234375 276.960938 175.234375 L 248.570312 175.234375 L 248.570312 168.613281 C 248.570312 165.09375 245.703125 162.226562 242.1875 162.226562 L 216.855469 162.226562 C 213.339844 162.226562 210.476562 165.09375 210.476562 168.613281 L 210.476562 175.234375 L 182.085938 175.234375 C 177.378906 175.234375 172.558594 177.816406 172.558594 181.617188 Z M 242.371094 175.234375 L 216.675781 175.234375 L 216.675781 168.613281 C 216.675781 168.519531 216.761719 168.429688 216.855469 168.429688 L 242.1875 168.429688 C 242.28125 168.429688 242.371094 168.519531 242.371094 168.613281 Z M 275.511719 240.800781 C 275.222656 241.046875 275.070312 241.371094 275.070312 241.753906 C 275.070312 242.132812 275.222656 242.457031 275.511719 242.703125 L 295.730469 259.890625 C 296.109375 260.214844 296.609375 260.28125 297.0625 260.074219 C 297.511719 259.863281 297.785156 259.4375 297.785156 258.941406 L 297.785156 250.933594 L 320.003906 250.933594 C 321.378906 250.933594 322.5 249.8125 322.5 248.4375 L 322.5 235.066406 C 322.5 233.691406 321.378906 232.570312 320.003906 232.570312 L 297.785156 232.570312 L 297.785156 224.5625 C 297.785156 224.066406 297.511719 223.640625 297.0625 223.429688 C 296.609375 223.222656 296.109375 223.289062 295.730469 223.609375 Z M 275.511719 240.800781 " fill-opacity="1" fill-rule="evenodd"/></g></svg>